# xmcd CD database file
#
# Track frame offsets:
#	150
#	10525
#	22387
#	39565
#	49982
#	65687
#	76880
#	88275
#	100682
#	112780
#
# Disc length: 1643 seconds
#
# Revision: 0
# Processed by: cddbd v1.5.2PL0 Copyright (c) Steve Scherf et al.
# Submitted via: CDex 1.70beta2
#
DISCID=7906690a
DTITLE=Ray Terrace - Home Of Boogaloo
DYEAR=1900
DGENRE=Jazz
TTITLE0=You've Been Talking 'Bout Me Baby
TTITLE1=Wade In The Water
TTITLE2=I Make A Fool Of Myself
TTITLE3=Get On Up
TTITLE4=Manteca
TTITLE5=Listen To Me
TTITLE6=Wiggle, Waggle
TTITLE7=Michelle
TTITLE8=Half Way Down
TTITLE9=There Is A Mountain
EXTD=
EXTT0=
EXTT1=
EXTT2=
EXTT3=
EXTT4=
EXTT5=
EXTT6=
EXTT7=
EXTT8=
EXTT9=
PLAYORDER=
